<svg id="Layer_1" data-name="Layer 1" xmlns="http://www.w3.org/2000/svg" viewBox="0 0 1440 900"><defs><style>.cls-1{fill:#00e733;}.cls-2{fill:#692eff;}.cls-3{fill:#a2004d;}.cls-4{fill:#692e5c;}.cls-5{fill:#ff5ce5;}.cls-6{fill:#fffa2e;}</style></defs><title>ligeti-arcArtboard 1</title>
	<path class="cls-1" d="M1,287.52S70.9,0,304.58,0C592.18,0,549.24,383.8,720,383.8s312.57-244.72,525.27-244.72S1439,311.59,1439,311.59V900H1Z"/>
	<path class="cls-2" d="M1,900H1440V436.36s-177.75-462-346.52-282S873.79,638.81,746,484.53,506.3,220.63,401.44,265.29c-88.19,37.57-131.88,269-175,269C146.8,534.25,164.77-5.37,94.87,0,20.89,5.77,2,461.39,2,461.39Z"/>
	<path class="cls-3" d="M1,900H1440V426.38s-567-612.53-804.63-367c-378.73,391.41-633.24,56-633.24,56Z"/>
	<path class="cls-4" d="M1440,900H1V302.65S408.43-189.47,568.21,87.72,712-14.56,790.9,49.18s13,332,143.8,277.18,34-432.82,152.79-295,152.79,450.61,252.65,332,100.3-21.36,100.3-21.36Z"/>
	<path class="cls-5" d="M1,900H1440V417.66s-371.48-34.56-506.3-272S806.88,199.78,685.05,299,471.35-6.07,302.58,1.44,1,368.11,1,368.11Z"/>
	<path class="cls-6" d="M1,900H1440V276.84S1020.58-73.9,605.16,14.19,121.83,405.71,71.9,361.67c-56-49.38-13-184.34-52.92-184.34-15,0-18,33.37-18,33.37Z"/>
	<path class="cls-1" d="M1,900H1440V167.68s-335.53,550-537.25,213S601.17-68.26,467.35,55.84s-96.82,383-264.63,383C57.92,438.85,1,92.4,1,92.4Z"/>
	<path class="cls-4" d="M1,900H1440V77s-223.28,523.87-363.69,523.87c-153.59,0-143.6-599.55-220.65-599.55C727,1.34,736,813.54,658.09,605.67S548.24,465.87,503.3,543.13c-41.83,71.93-108.85-329.45-263.14-329.45-114.33,0-131.31,294.5-170.26,322.09C33.94,561.25,1,458.51,1,458.51Z"/>
</svg>